<svg width="13" height="92" fill="none" xmlns="http://www.w3.org/2000/svg"><path opacity=".5" d="M1.264 85.588a2.218 2.218 0 0 0-.14.532 3.566 3.566 0 0 0-.056.686c0 .383.07.76.21 1.134.14.364.369.69.686.98.317.28.733.509 1.246.686.513.168 1.143.252 1.89.252.672 0 1.26-.075 1.764-.224.504-.159.924-.373 1.26-.644a2.69 2.69 0 0 0 .756-.994c.168-.392.252-.826.252-1.302 0-.243-.019-.467-.056-.672a3.344 3.344 0 0 0-.182-.588h-1.4v-1.036h1.89l.028-.014c.215.28.397.635.546 1.064.14.43.21.952.21 1.568a4.48 4.48 0 0 1-.294 1.638 3.492 3.492 0 0 1-.924 1.288c-.41.364-.933.649-1.568.854-.644.196-1.405.294-2.282.294-.915 0-1.69-.112-2.324-.336-.644-.224-1.167-.527-1.568-.91a3.428 3.428 0 0 1-.896-1.33 4.756 4.756 0 0 1-.28-1.638c0-.317.014-.593.042-.826.019-.233.051-.439.098-.616.037-.177.089-.331.154-.462.065-.14.14-.275.224-.406v-.014h2.212v1.036H1.264zm5.572-5.356v.77H10v1.078H3V81h2.996v-.77L3 77.474v-1.317l3.318 3.094 2.744-2.547v-.91H10v1.442L6.836 80.23zM5.45 73.867c-.084 0-.191.005-.322.014a6.335 6.335 0 0 0-.854.056 3.32 3.32 0 0 0-.364.042v.938H3v-1.862l.98-.14v-.07a3.1 3.1 0 0 1-.812-.952c-.224-.392-.336-.868-.336-1.428 0-.999.275-1.75.826-2.254.55-.504 1.451-.756 2.702-.756.588 0 1.12.089 1.596.266.467.168.863.41 1.19.728.327.317.579.7.756 1.148a4 4 0 0 1 .266 1.484c0 .196-.01.373-.028.532-.01.15-.028.29-.056.42a2.567 2.567 0 0 1-.084.364 5.092 5.092 0 0 1-.14.392h2.94v1.078H5.45zm-1.596-3.22c0 .28.051.546.154.798.103.243.238.462.406.658.168.187.355.34.56.462.205.121.41.196.616.224h3.192c.14-.205.252-.434.336-.686.075-.261.112-.602.112-1.022 0-.747-.243-1.344-.728-1.792-.495-.448-1.213-.672-2.156-.672-.793 0-1.405.159-1.834.476-.439.308-.658.826-.658 1.554zM6.5 66.018c-1.13 0-2.02-.294-2.674-.882-.663-.588-.994-1.428-.994-2.52 0-.588.098-1.092.294-1.512.187-.429.443-.784.77-1.064s.714-.485 1.162-.616a4.81 4.81 0 0 1 1.442-.21 4.9 4.9 0 0 1 1.526.224c.448.15.83.37 1.148.658.317.29.565.65.742 1.078.168.42.252.901.252 1.442 0 .58-.093 1.083-.28 1.512a3.04 3.04 0 0 1-.784 1.064c-.327.28-.714.49-1.162.63-.448.131-.929.196-1.442.196zm0-1.162c.327 0 .653-.037.98-.112.327-.084.62-.214.882-.392a2.02 2.02 0 0 0 .63-.686c.159-.289.238-.639.238-1.05 0-.746-.229-1.306-.686-1.68-.467-.382-1.148-.574-2.044-.574-.336 0-.663.042-.98.126-.327.075-.62.206-.882.392-.261.178-.471.411-.63.7-.159.28-.238.626-.238 1.036 0 .747.229 1.307.686 1.68.457.374 1.139.56 2.044.56zM3.952 52.458v2.422c.85.037 1.647.084 2.394.14a9.674 9.674 0 0 1 1.932.322c.55.15.985.369 1.302.658.317.28.476.663.476 1.148 0 .186-.01.322-.028.406a2.253 2.253 0 0 1-.098.308l-1.036-.182c.047-.178.07-.34.07-.49a.6.6 0 0 0-.168-.42c-.112-.122-.29-.229-.532-.322-.252-.103-.602-.187-1.05-.252a18.866 18.866 0 0 0-1.708-.182A65.892 65.892 0 0 0 3 55.902v-4.536h7v1.092H3.952zm0-8.395v2.422c.85.038 1.647.084 2.394.14a9.68 9.68 0 0 1 1.932.322c.55.15.985.369 1.302.658.317.28.476.663.476 1.148 0 .187-.01.322-.028.406a2.25 2.25 0 0 1-.098.308l-1.036-.182c.047-.177.07-.34.07-.49a.601.601 0 0 0-.168-.42c-.112-.121-.29-.228-.532-.322-.252-.102-.602-.186-1.05-.252a18.939 18.939 0 0 0-1.708-.182A66.1 66.1 0 0 0 3 47.507v-4.536h7v1.092H3.952zm-.938-12.505l-.028-.532a9.717 9.717 0 0 1-.042-.574c-.01-.205-.019-.424-.028-.658-.01-.242-.014-.513-.014-.812 0-1.008.145-1.736.434-2.184.28-.448.705-.672 1.274-.672.327 0 .653.108.98.322.317.215.546.565.686 1.05h.056c.103-.616.294-1.05.574-1.302.27-.252.644-.378 1.12-.378.728 0 1.255.299 1.582.896.327.588.49 1.447.49 2.576 0 .448-.014.85-.042 1.204-.019.355-.042.71-.07 1.064H3.014zm6.104-1.078a14.94 14.94 0 0 0 .056-1.372c0-.728-.089-1.27-.266-1.624-.187-.364-.504-.546-.952-.546a.995.995 0 0 0-.476.112.866.866 0 0 0-.364.35 1.89 1.89 0 0 0-.238.63 4.785 4.785 0 0 0-.084.98v1.47h2.324zm-3.164-1.666a1.94 1.94 0 0 0-.084-.56 2.514 2.514 0 0 0-.238-.504 1.371 1.371 0 0 0-.35-.378.772.772 0 0 0-.434-.14c-.383 0-.649.14-.798.42-.15.27-.224.728-.224 1.372 0 .355.005.64.014.854l.028.602h2.086v-1.666zm.938-10.046v3.766H10v1.078H3v-1.078h2.912v-3.766H3v-1.092h7v1.092H6.892zM5.604 10.33l-.924-.042v.042L10 14.265v.994H3v-1.092h4.522l.882.042v-.056L3 10.247V9.24h7v1.092H5.604zM3.658 6.557l-.042.014a6.38 6.38 0 0 1-.266-.504 3.677 3.677 0 0 1-.238-.616 5.402 5.402 0 0 1-.182-.784c-.047-.29-.07-.621-.07-.994 0-.383.042-.738.126-1.064.075-.327.187-.612.336-.854.15-.243.336-.43.56-.56A1.328 1.328 0 0 1 5.1 1.083c.159.056.313.144.462.266.15.121.285.266.406.434.121.168.215.359.28.574h.056c.103-.616.299-1.046.588-1.288C7.182.817 7.564.69 8.04.69c.299 0 .574.07.826.21.252.14.471.35.658.63.187.27.336.611.448 1.022.103.401.154.872.154 1.414 0 .401-.037.765-.112 1.092a4.744 4.744 0 0 1-.28.868 3.614 3.614 0 0 1-.364.63c-.13.168-.252.298-.364.392l-.882-.56c.112-.103.233-.229.364-.378.121-.15.233-.332.336-.546a4.76 4.76 0 0 0 .266-.756c.065-.29.098-.621.098-.994a3.57 3.57 0 0 0-.07-.728 2.384 2.384 0 0 0-.224-.602 1.272 1.272 0 0 0-.378-.42.983.983 0 0 0-.546-.154c-.355 0-.625.163-.812.49-.187.317-.28.844-.28 1.582v.798h-.91v-.994a1.94 1.94 0 0 0-.084-.56 2.516 2.516 0 0 0-.238-.504 1.45 1.45 0 0 0-.35-.364.772.772 0 0 0-.434-.14.797.797 0 0 0-.476.14.991.991 0 0 0-.336.392c-.084.158-.145.35-.182.574-.047.214-.07.443-.07.686 0 .373.037.7.112.98.065.28.15.518.252.714h1.162v.952H3.658z" fill="#fff"/></svg>